<svg xmlns="http://www.w3.org/2000/svg">
  <symbol id="arrow-down" viewBox="0 0 24 24" fill="none" stroke="currentColor" stroke-width="1.8" stroke-linecap="round" stroke-linejoin="round"><path d="M12 5v14"/><path d="m19 12-7 7-7-7"/></symbol>
  <symbol id="arrow-left" viewBox="0 0 24 24" fill="none" stroke="currentColor" stroke-width="1.8" stroke-linecap="round" stroke-linejoin="round"><path d="M19 12H5"/><path d="m11 18-6-6 6-6"/></symbol>
  <symbol id="arrow-right" viewBox="0 0 24 24" fill="none" stroke="currentColor" stroke-width="1.8" stroke-linecap="round" stroke-linejoin="round"><path d="M5 12h14"/><path d="m13 6 6 6-6 6"/></symbol>
  <symbol id="arrow-up-right" viewBox="0 0 24 24" fill="none" stroke="currentColor" stroke-width="1.8" stroke-linecap="round" stroke-linejoin="round"><path d="M7 17 17 7"/><path d="M7 7h10v10"/></symbol>
  <symbol id="cake" viewBox="0 0 24 24" fill="none" stroke="currentColor" stroke-width="1.7" stroke-linecap="round" stroke-linejoin="round"><path d="M4 10h16v10H4z"/><path d="M4 15h16"/><path d="M8 10V7m4 3V5m4 5V7"/><path d="M8 4h.01M12 2h.01M16 4h.01"/></symbol>
  <symbol id="check" viewBox="0 0 24 24" fill="none" stroke="currentColor" stroke-width="2" stroke-linecap="round" stroke-linejoin="round"><path d="m5 12 4 4L19 6"/></symbol>
  <symbol id="check-circle" viewBox="0 0 24 24" fill="none" stroke="currentColor" stroke-width="1.8" stroke-linecap="round" stroke-linejoin="round"><circle cx="12" cy="12" r="9"/><path d="m8 12 2.7 2.7L16.5 9"/></symbol>
  <symbol id="coffee" viewBox="0 0 24 24" fill="none" stroke="currentColor" stroke-width="1.7" stroke-linecap="round" stroke-linejoin="round"><path d="M5 8h11v7a5 5 0 0 1-5 5h-1a5 5 0 0 1-5-5Z"/><path d="M16 10h1.5a3 3 0 0 1 0 6H16"/><path d="M7 4v1m4-2v2m4-1v1"/></symbol>
  <symbol id="dumbbell" viewBox="0 0 24 24" fill="none" stroke="currentColor" stroke-width="1.8" stroke-linecap="round" stroke-linejoin="round"><path d="M6.5 7v10m11-10v10M3.5 9.5v5m17-5v5M6.5 12h11"/></symbol>
  <symbol id="filter" viewBox="0 0 24 24" fill="none" stroke="currentColor" stroke-width="1.8" stroke-linecap="round" stroke-linejoin="round"><path d="M4 6h16M7 12h10m-7 6h4"/></symbol>
  <symbol id="heart" viewBox="0 0 24 24" fill="none" stroke="currentColor" stroke-width="1.8" stroke-linecap="round" stroke-linejoin="round"><path d="M20.8 4.6a5.5 5.5 0 0 0-7.8 0L12 5.7l-1.1-1.1a5.5 5.5 0 0 0-7.8 7.8l1.1 1.1L12 21l7.8-7.5 1.1-1.1a5.5 5.5 0 0 0-.1-7.8Z"/></symbol>
  <symbol id="headphones" viewBox="0 0 24 24" fill="none" stroke="currentColor" stroke-width="1.7" stroke-linecap="round" stroke-linejoin="round"><path d="M4 14v-2a8 8 0 0 1 16 0v2"/><path d="M4 14h3v7H5a1 1 0 0 1-1-1v-6Zm16 0h-3v7h2a1 1 0 0 0 1-1v-6Z"/></symbol>
  <symbol id="keyboard" viewBox="0 0 24 24" fill="none" stroke="currentColor" stroke-width="1.7" stroke-linecap="round" stroke-linejoin="round"><rect x="3" y="6" width="18" height="12" rx="2"/><path d="M7 10h.01M11 10h.01M15 10h.01M18 10h.01M7 14h.01M11 14h6"/></symbol>
  <symbol id="menu" viewBox="0 0 24 24" fill="none" stroke="currentColor" stroke-width="1.8" stroke-linecap="round" stroke-linejoin="round"><path d="M4 7h16M4 12h16M4 17h16"/></symbol>
  <symbol id="minus" viewBox="0 0 24 24" fill="none" stroke="currentColor" stroke-width="2" stroke-linecap="round"><path d="M5 12h14"/></symbol>
  <symbol id="mobility" viewBox="0 0 24 24" fill="none" stroke="currentColor" stroke-width="1.7" stroke-linecap="round" stroke-linejoin="round"><circle cx="12" cy="5" r="2"/><path d="m7 12 5-3 5 3M12 9v9m-5 3 5-3 5 3"/></symbol>
  <symbol id="pastry" viewBox="0 0 24 24" fill="none" stroke="currentColor" stroke-width="1.7" stroke-linecap="round" stroke-linejoin="round"><path d="M3.5 13c.8-5.2 4-8.5 8.5-8.5s7.7 3.3 8.5 8.5c.5 3.4-2.7 6.5-6.1 5.1a6 6 0 0 0-4.8 0C6.2 19.5 3 16.4 3.5 13Z"/><path d="M7.2 7.2c1.6 2.3 1.6 6.1 0 8.4m9.6-8.4c-1.6 2.3-1.6 6.1 0 8.4"/></symbol>
  <symbol id="phone" viewBox="0 0 24 24" fill="none" stroke="currentColor" stroke-width="1.7" stroke-linecap="round" stroke-linejoin="round"><rect x="7" y="2.5" width="10" height="19" rx="2.2"/><path d="M10 5h4m-3 13.5h2"/></symbol>
  <symbol id="plus" viewBox="0 0 24 24" fill="none" stroke="currentColor" stroke-width="2" stroke-linecap="round"><path d="M12 5v14M5 12h14"/></symbol>
  <symbol id="search-x" viewBox="0 0 24 24" fill="none" stroke="currentColor" stroke-width="1.8" stroke-linecap="round" stroke-linejoin="round"><circle cx="10.5" cy="10.5" r="6.5"/><path d="m16 16 4 4m-1-11-4 4m0-4 4 4"/></symbol>
  <symbol id="shopping-bag" viewBox="0 0 24 24" fill="none" stroke="currentColor" stroke-width="1.8" stroke-linecap="round" stroke-linejoin="round"><path d="M6 8h12l1 13H5L6 8Z"/><path d="M9 9V6a3 3 0 0 1 6 0v3"/></symbol>
  <symbol id="shopping-cart" viewBox="0 0 24 24" fill="none" stroke="currentColor" stroke-width="1.8" stroke-linecap="round" stroke-linejoin="round"><circle cx="9" cy="20" r="1"/><circle cx="18" cy="20" r="1"/><path d="M3 3h2l2.4 11.2a2 2 0 0 0 2 1.6h7.8a2 2 0 0 0 2-1.6L21 7H6"/></symbol>
  <symbol id="sparkles" viewBox="0 0 24 24" fill="none" stroke="currentColor" stroke-width="1.7" stroke-linecap="round" stroke-linejoin="round"><path d="m12 3-1.2 3.2L8 7.5l2.8 1.3L12 12l1.2-3.2L16 7.5l-2.8-1.3L12 3Z"/><path d="m5.5 13-.8 2.2-2.2.8 2.2.8.8 2.2.8-2.2 2.2-.8-2.2-.8-.8-2.2Zm13-1-.8 2.2-2.2.8 2.2.8.8 2.2.8-2.2 2.2-.8-2.2-.8-.8-2.2Z"/></symbol>
  <symbol id="star" viewBox="0 0 24 24" fill="currentColor" stroke="currentColor" stroke-width="1.2" stroke-linejoin="round"><path d="m12 2.8 2.8 5.8 6.4.9-4.6 4.5 1.1 6.3-5.7-3-5.7 3 1.1-6.3-4.6-4.5 6.4-.9L12 2.8Z"/></symbol>
  <symbol id="trash" viewBox="0 0 24 24" fill="none" stroke="currentColor" stroke-width="1.8" stroke-linecap="round" stroke-linejoin="round"><path d="M4 7h16m-10 4v6m4-6v6M9 7l1-3h4l1 3m3 0-1 14H7L6 7"/></symbol>
  <symbol id="x" viewBox="0 0 24 24" fill="none" stroke="currentColor" stroke-width="1.9" stroke-linecap="round"><path d="m6 6 12 12M18 6 6 18"/></symbol>
  <symbol id="zap" viewBox="0 0 24 24" fill="none" stroke="currentColor" stroke-width="1.8" stroke-linecap="round" stroke-linejoin="round"><path d="M13 2 4 14h7l-1 8 9-12h-7l1-8Z"/></symbol>
</svg>
